<svg width="111" height="35" viewBox="0 0 111 35" fill="none" xmlns="http://www.w3.org/2000/svg">
<path d="M109.299 29.8985C109.299 30.3088 109.219 30.7151 109.061 31.0941C108.904 31.4732 108.674 31.8175 108.383 32.1075C108.093 32.3975 107.748 32.6274 107.369 32.7841C106.99 32.9409 106.583 33.0213 106.173 33.0209H3.85637C3.02709 33.0217 2.23142 32.6933 1.64434 32.1077C1.05726 31.5222 0.72685 30.7275 0.725769 29.8985V4.99809C0.726849 4.16865 1.05713 3.37355 1.64409 2.78736C2.23105 2.20116 3.02671 1.8718 3.85637 1.87158H106.172C106.583 1.87158 106.989 1.95246 107.369 2.10959C107.748 2.26672 108.093 2.49703 108.383 2.78736C108.673 3.0777 108.904 3.42237 109.061 3.80169C109.218 4.18101 109.299 4.58755 109.299 4.99809L109.299 29.8985Z" fill="white"/>
<path d="M106.173 33.7473H3.85637C2.83479 33.7471 1.85502 33.3417 1.13205 32.6201C0.40907 31.8986 0.00194378 30.9198 0 29.8985L0 4.9989C0.00151128 3.97708 0.408369 2.99759 1.13132 2.27529C1.85427 1.55299 2.83428 1.14686 3.85637 1.146L106.172 1.146C107.194 1.14729 108.174 1.55356 108.897 2.27576C109.619 2.99797 110.026 3.97722 110.028 4.9989V29.8985C110.03 32.0214 108.297 33.7473 106.173 33.7473Z" fill="#A6A6A6"/>
<path d="M109.299 29.8985C109.299 30.3088 109.219 30.7151 109.061 31.0941C108.904 31.4732 108.674 31.8175 108.383 32.1075C108.093 32.3975 107.748 32.6274 107.369 32.7841C106.99 32.9409 106.583 33.0213 106.173 33.0209H3.85637C3.02709 33.0217 2.23142 32.6933 1.64434 32.1077C1.05726 31.5222 0.72685 30.7275 0.725769 29.8985V4.99809C0.726849 4.16865 1.05713 3.37355 1.64409 2.78736C2.23105 2.20116 3.02671 1.8718 3.85637 1.87158H106.172C106.583 1.87158 106.989 1.95246 107.369 2.10959C107.748 2.26672 108.093 2.49703 108.383 2.78736C108.673 3.0777 108.904 3.42237 109.061 3.80169C109.218 4.18101 109.299 4.58755 109.299 4.99809L109.299 29.8985Z" fill="black"/>
<path d="M24.5686 17.2749C24.5449 14.6474 26.7206 13.369 26.8201 13.3095C25.5879 11.5135 23.6781 11.2681 23.0069 11.2486C21.4029 11.0798 19.847 12.2081 19.0299 12.2081C18.1965 12.2081 16.9382 11.2649 15.5821 11.2926C13.8369 11.3195 12.2044 12.3296 11.309 13.8981C9.46112 17.0964 10.8393 21.7963 12.6097 24.3815C13.4953 25.6484 14.5301 27.0613 15.8846 27.0115C17.2097 26.9577 17.7047 26.1677 19.3039 26.1677C20.8883 26.1677 21.3531 27.0115 22.7346 26.9797C24.1567 26.9577 25.0521 25.7079 25.9067 24.4304C26.9302 22.9801 27.3412 21.5501 27.3575 21.4768C27.3249 21.4654 24.5963 20.4235 24.5686 17.2749ZM21.959 9.54794C22.6718 8.65686 23.1594 7.44458 23.0241 6.21436C21.9925 6.26001 20.7024 6.9277 19.9595 7.79921C19.3022 8.56718 18.7151 9.82594 18.8668 11.0097C20.0256 11.0961 21.2153 10.4252 21.959 9.54794Z" fill="white"/>
<path d="M106.173 1.146H51.369L72.8347 33.7473H106.173C107.195 33.7464 108.174 33.3405 108.897 32.6186C109.62 31.8966 110.027 30.9175 110.029 29.896V4.9989C110.027 3.97715 109.621 2.99778 108.898 2.27553C108.175 1.55327 107.195 1.14707 106.173 1.146Z" fill="url(#paint0_linear_30_435)"/>
<path d="M43.7624 26.8299H41.9104L40.896 23.643H37.3699L36.4035 26.8299H34.6005L38.0948 15.9804H40.2526L43.7624 26.8299ZM40.5902 22.306L39.6728 19.473C39.5757 19.1836 39.3931 18.502 39.1256 17.4291H39.093C38.9853 17.8906 38.8133 18.5721 38.5776 19.473L37.6757 22.306H40.5902ZM52.7309 22.8221C52.7309 24.1526 52.3697 25.2042 51.6464 25.9763C50.9989 26.6635 50.194 27.0068 49.2342 27.0068C48.1977 27.0068 47.4524 26.6375 46.9998 25.8972V30.002H45.2612V21.578C45.2612 20.7423 45.2392 19.8855 45.1968 19.0067H46.7258L46.8228 20.2467H46.8554C47.4353 19.3124 48.3151 18.8452 49.4959 18.8452C50.4191 18.8452 51.1897 19.2097 51.8062 19.9393C52.4219 20.6706 52.7309 21.631 52.7309 22.8221ZM50.9597 22.8856C50.9597 22.1242 50.7885 21.4965 50.4443 21.0016C50.0684 20.4872 49.5636 20.2295 48.9308 20.2295C48.5019 20.2295 48.1121 20.373 47.7639 20.6559C47.4149 20.9413 47.1865 21.3138 47.0797 21.7753C47.032 21.9478 47.0049 22.1254 46.999 22.3044V23.6096C46.999 24.1778 47.1735 24.658 47.5225 25.051C47.8715 25.4423 48.3249 25.6388 48.8827 25.6388C49.5375 25.6388 50.0472 25.3852 50.4117 24.8822C50.7771 24.3776 50.9597 23.7123 50.9597 22.8856ZM61.7313 22.8221C61.7313 24.1526 61.3701 25.2042 60.6467 25.9763C59.9984 26.6635 59.1944 27.0068 58.2337 27.0068C57.1973 27.0068 56.4519 26.6375 55.9993 25.8972V30.002H54.2608V21.578C54.2608 20.7423 54.2387 19.8855 54.1963 19.0067H55.7253L55.8224 20.2467H55.855C56.434 19.3124 57.3139 18.8452 58.4955 18.8452C59.4178 18.8452 60.1884 19.2097 60.8066 19.9393C61.4214 20.6706 61.7313 21.631 61.7313 22.8221ZM59.9593 22.8856C59.9593 22.1242 59.7872 21.4965 59.4431 21.0016C59.0672 20.4872 58.564 20.2295 57.9312 20.2295C57.5023 20.2295 57.1125 20.373 56.7626 20.6559C56.4136 20.9413 56.1861 21.3138 56.0793 21.7753C56.0263 21.9905 55.9977 22.1658 55.9977 22.3044V23.6096C55.9977 24.1778 56.173 24.658 56.5204 25.051C56.8695 25.4415 57.3229 25.6388 57.8823 25.6388C58.5379 25.6388 59.0476 25.3852 59.4113 24.8822C59.7766 24.3776 59.9593 23.7123 59.9593 22.8856ZM71.7942 23.7865C71.7942 24.7102 71.4713 25.461 70.8295 26.0407C70.1233 26.6733 69.1374 26.9905 67.8734 26.9905C66.7057 26.9905 65.7695 26.7655 65.0633 26.3146L65.4654 24.8659C66.2278 25.3176 67.0653 25.5426 67.977 25.5426C68.6327 25.5426 69.1423 25.3942 69.506 25.0999C69.8705 24.8048 70.0548 24.4102 70.0548 23.9178C70.0548 23.4767 69.9023 23.1074 69.6031 22.8066C69.3022 22.5066 68.8047 22.2269 68.1059 21.9701C66.2058 21.2617 65.255 20.2255 65.255 18.8624C65.255 17.9721 65.5909 17.2433 66.2613 16.6734C66.9316 16.1043 67.8204 15.8198 68.9262 15.8198C69.9138 15.8198 70.7366 15.9918 71.3898 16.3351L70.9535 17.752C70.3386 17.4194 69.6447 17.253 68.8683 17.253C68.2551 17.253 67.774 17.4039 67.4298 17.7039C67.1403 17.9721 66.9935 18.299 66.9935 18.6871C66.9935 19.1151 67.1607 19.4705 67.4934 19.7494C67.7821 20.0062 68.3089 20.2858 69.0706 20.5858C70.0051 20.9625 70.6917 21.4011 71.1313 21.9049C71.5741 22.4087 71.7942 23.0373 71.7942 23.7865ZM77.5572 20.3111H75.6408V24.1093C75.6408 25.0754 75.9784 25.5572 76.6553 25.5572C76.966 25.5572 77.2237 25.5312 77.4275 25.4765L77.4756 26.7964C77.1331 26.9244 76.6822 26.9888 76.1236 26.9888C75.437 26.9888 74.9004 26.7793 74.513 26.3603C74.1273 25.9412 73.9332 25.2393 73.9332 24.2512V20.3078H72.7916V19.0034H73.9332V17.571L75.6408 17.0558V19.0034H77.5572V20.3111ZM86.1865 22.8539C86.1865 24.0564 85.8424 25.0436 85.1558 25.8157C84.4373 26.6106 83.4816 27.0068 82.2902 27.0068C81.1404 27.0068 80.2262 26.626 79.5445 25.8654C78.8628 25.1031 78.5219 24.1428 78.5219 22.9843C78.5219 21.772 78.8742 20.779 79.5763 20.007C80.28 19.2341 81.2276 18.8477 82.419 18.8477C83.5672 18.8477 84.4895 19.2292 85.1876 19.9907C85.8546 20.7293 86.1865 21.6831 86.1865 22.8539ZM84.3843 22.8938C84.3843 22.1772 84.2294 21.5625 83.9187 21.0481C83.5542 20.4268 83.0323 20.1162 82.3562 20.1162C81.6598 20.1162 81.1257 20.4268 80.762 21.0481C80.4505 21.5625 80.2955 22.1878 80.2955 22.9264C80.2955 23.6438 80.4505 24.2602 80.762 24.773C81.1379 25.3942 81.6623 25.7048 82.3416 25.7048C83.0062 25.7048 83.5273 25.3877 83.904 24.7575C84.2237 24.2308 84.3843 23.612 84.3843 22.8938ZM91.8402 20.5353C91.6594 20.5026 91.4759 20.4865 91.2922 20.4872C90.6806 20.4872 90.2076 20.7171 89.8749 21.1801C89.5862 21.5878 89.4411 22.103 89.4411 22.725V26.8299H87.7025V21.4704C87.704 20.6491 87.6872 19.828 87.6519 19.0075H89.1663L89.2299 20.5043H89.278C89.4623 19.9899 89.7509 19.5749 90.1473 19.2643C90.51 18.9929 90.9508 18.8459 91.4039 18.8452C91.5646 18.8452 91.7097 18.8567 91.8386 18.877L91.8402 20.5353ZM99.6157 22.5481C99.6201 22.8124 99.5988 23.0764 99.5521 23.3365H94.3363C94.3559 24.1093 94.6087 24.7012 95.0931 25.1089C95.5326 25.4725 96.101 25.6551 96.7991 25.6551C97.5713 25.6551 98.2759 25.5328 98.9095 25.2858L99.1819 26.4915C98.4414 26.8144 97.5673 26.975 96.5585 26.975C95.3451 26.975 94.3926 26.6179 93.6995 25.9054C93.0079 25.192 92.6614 24.2333 92.6614 23.0324C92.6614 21.8535 92.9835 20.8712 93.6285 20.0877C94.3037 19.2512 95.2162 18.833 96.3644 18.833C97.4922 18.833 98.346 19.2512 98.9258 20.0877C99.3849 20.7505 99.6157 21.5723 99.6157 22.5481ZM97.9579 22.0973C97.9701 21.5812 97.8559 21.1369 97.6203 20.7611C97.3194 20.2768 96.8562 20.0355 96.2356 20.0355C95.6672 20.0355 95.204 20.2711 94.8517 20.744C94.5622 21.1198 94.3902 21.5715 94.3372 22.0957L97.9579 22.0973Z" fill="white"/>
<path d="M36.8683 12.1445C36.3847 12.1445 35.9664 12.1209 35.6182 12.0809V6.83558C36.1052 6.76037 36.5973 6.7233 37.0901 6.72471C39.0839 6.72471 40.0021 7.70546 40.0021 9.30418C40.0021 11.1483 38.9176 12.1445 36.8683 12.1445ZM37.1602 7.39729C36.8911 7.39729 36.662 7.4136 36.472 7.45273V11.4401C36.5747 11.4565 36.7721 11.4638 37.0493 11.4638C38.3557 11.4638 39.0994 10.7203 39.0994 9.32782C39.0994 8.08618 38.4266 7.39729 37.1602 7.39729ZM42.8636 12.1845C41.7399 12.1845 41.0117 11.3456 41.0117 10.2067C41.0117 9.01965 41.7554 8.17342 42.9272 8.17342C44.0346 8.17342 44.7792 8.97237 44.7792 10.1439C44.7792 11.3456 44.0118 12.1845 42.8636 12.1845ZM42.8963 8.7979C42.2789 8.7979 41.8834 9.3751 41.8834 10.1822C41.8834 10.9738 42.2871 11.551 42.8881 11.551C43.4891 11.551 43.8928 10.9339 43.8928 10.1659C43.8928 9.38326 43.4973 8.7979 42.8963 8.7979ZM51.1872 8.2525L49.9843 12.0972H49.2007L48.7024 10.4276C48.5785 10.0192 48.4754 9.60479 48.3933 9.18597H48.377C48.3142 9.60501 48.1952 10.0249 48.0688 10.4276L47.5387 12.0972H46.7469L45.615 8.2525H46.4933L46.9288 10.0803C47.0315 10.5156 47.1179 10.9265 47.1897 11.3146H47.206C47.2688 10.9909 47.3716 10.5866 47.5224 10.0885L48.0688 8.25331H48.7652L49.2879 10.0493C49.4143 10.4847 49.5171 10.9119 49.597 11.3154H49.6198C49.6753 10.92 49.7625 10.5002 49.8808 10.0493L50.348 8.25331L51.1872 8.2525ZM55.6152 12.0972H54.7606V9.88953C54.7606 9.20961 54.4996 8.86883 53.985 8.86883C53.4786 8.86883 53.1304 9.30418 53.1304 9.81045V12.0972H52.2758V9.35146C52.2758 9.0115 52.2677 8.64708 52.244 8.25168H52.9959L53.0358 8.84519H53.0595C53.2894 8.4343 53.7559 8.17342 54.2786 8.17342C55.0859 8.17342 55.616 8.79057 55.616 9.79496L55.6152 12.0972ZM57.9719 12.0972H57.1164V6.48828H57.9719V12.0972ZM61.0878 12.1845C59.9649 12.1845 59.2359 11.3456 59.2359 10.2067C59.2359 9.01965 59.9796 8.17342 61.1506 8.17342C62.2588 8.17342 63.0025 8.97237 63.0025 10.1439C63.0033 11.3456 62.2352 12.1845 61.0878 12.1845ZM61.1196 8.7979C60.5023 8.7979 60.1068 9.3751 60.1068 10.1822C60.1068 10.9738 60.5113 11.551 61.1106 11.551C61.7125 11.551 62.1153 10.9339 62.1153 10.1659C62.1161 9.38326 61.7214 8.7979 61.1196 8.7979ZM66.3721 12.0972L66.3101 11.6546H66.2872C66.0263 12.0108 65.6455 12.1845 65.1627 12.1845C64.4736 12.1845 63.9844 11.7018 63.9844 11.0529C63.9844 10.1039 64.8072 9.61316 66.2318 9.61316V9.54223C66.2318 9.03596 65.9635 8.78241 65.4334 8.78241C65.0543 8.78241 64.7215 8.8778 64.4288 9.06775L64.2551 8.50604C64.6106 8.28429 65.0543 8.17342 65.5753 8.17342C66.58 8.17342 67.0872 8.70333 67.0872 9.76398V11.1801C67.0872 11.5681 67.1043 11.869 67.1427 12.0981L66.3721 12.0972ZM66.2546 10.1822C65.3054 10.1822 64.8292 10.4121 64.8292 10.9575C64.8292 11.3611 65.0746 11.5584 65.4155 11.5584C65.8502 11.5584 66.2546 11.2266 66.2546 10.7757V10.1822ZM71.2372 12.0972L71.1972 11.4801H71.1736C70.9281 11.9464 70.5155 12.1845 69.9389 12.1845C69.0117 12.1845 68.3251 11.3692 68.3251 10.2222C68.3251 9.01965 69.037 8.1726 70.0091 8.1726C70.5236 8.1726 70.8881 8.34625 71.0936 8.69518H71.1108V6.48828H71.9662V11.0611C71.9662 11.4328 71.9752 11.7809 71.998 12.0972H71.2372ZM71.1108 9.83491C71.1108 9.29684 70.7544 8.83785 70.2105 8.83785C69.5769 8.83785 69.1895 9.39956 69.1895 10.1904C69.1895 10.9657 69.5915 11.4964 70.1934 11.4964C70.7308 11.4964 71.1108 11.0293 71.1108 10.4757V9.83491ZM77.3899 12.1845C76.267 12.1845 75.5388 11.3456 75.5388 10.2067C75.5388 9.01965 76.2825 8.17342 77.4535 8.17342C78.5617 8.17342 79.3054 8.97237 79.3054 10.1439C79.3063 11.3456 78.5389 12.1845 77.3899 12.1845ZM77.4217 8.7979C76.8052 8.7979 76.4097 9.3751 76.4097 10.1822C76.4097 10.9738 76.8134 11.551 77.4135 11.551C78.0154 11.551 78.4182 10.9339 78.4182 10.1659C78.4198 9.38326 78.0243 8.7979 77.4217 8.7979ZM83.9014 12.0972H83.046V9.88953C83.046 9.20961 82.7851 8.86883 82.2705 8.86883C81.7641 8.86883 81.4167 9.30418 81.4167 9.81045V12.0972H80.5613V9.35146C80.5613 9.0115 80.5531 8.64708 80.5295 8.25168H81.2813L81.3213 8.84519H81.3449C81.5741 8.4343 82.0414 8.1726 82.5633 8.1726C83.3706 8.1726 83.9014 8.78975 83.9014 9.79415V12.0972ZM89.6513 8.89329H88.7111V10.7602C88.7111 11.2355 88.8758 11.4728 89.2085 11.4728C89.3594 11.4728 89.4858 11.4565 89.5877 11.4328L89.6114 12.0818C89.4458 12.1453 89.224 12.1771 88.9484 12.1771C88.2748 12.1771 87.872 11.8054 87.872 10.832V8.89329H87.3109V8.2525H87.872V7.54811L88.7111 7.29457V8.25168H89.6513V8.89329ZM94.1756 12.0972H93.3218V9.90584C93.3218 9.21776 93.0616 8.86965 92.5463 8.86965C92.1035 8.86965 91.6908 9.17048 91.6908 9.77947V12.0972H90.837V6.48828H91.6908V8.7979H91.708C91.9771 8.37886 92.3669 8.1726 92.8643 8.1726C93.6781 8.1726 94.1756 8.80524 94.1756 9.81045V12.0972ZM98.8107 10.3803H96.2461C96.2624 11.1083 96.7443 11.5192 97.4578 11.5192C97.837 11.5192 98.1861 11.4556 98.4943 11.3374L98.6272 11.9309C98.2635 12.0891 97.8354 12.1682 97.3372 12.1682C96.1343 12.1682 95.4224 11.4084 95.4224 10.2303C95.4224 9.05145 96.1515 8.16526 97.2409 8.16526C98.2236 8.16526 98.8401 8.89329 98.8401 9.99307C98.8456 10.1229 98.8357 10.2528 98.8107 10.3803ZM98.027 9.77132C98.027 9.17781 97.7278 8.75877 97.1814 8.75877C96.6905 8.75877 96.3023 9.18596 96.2469 9.77132H98.027Z" fill="white"/>
<defs>
<linearGradient id="paint0_linear_30_435" x1="80.6982" y1="33.8338" x2="80.6982" y2="-83.7421" gradientUnits="userSpaceOnUse">
<stop stop-color="#1A1A1A" stop-opacity="0.1"/>
<stop offset="0.123" stop-color="#212121" stop-opacity="0.151"/>
<stop offset="0.308" stop-color="#353535" stop-opacity="0.227"/>
<stop offset="0.532" stop-color="#575757" stop-opacity="0.318"/>
<stop offset="0.783" stop-color="#858585" stop-opacity="0.421"/>
<stop offset="1" stop-color="#B3B3B3" stop-opacity="0.51"/>
</linearGradient>
</defs>
</svg>
