<svg width="124" height="35" viewBox="0 0 124 35" fill="none" xmlns="http://www.w3.org/2000/svg">
<g clip-path="url(#clip0_30_422)">
<path d="M119.407 33.7425H4.59259C2.02074 33.7425 0 31.9499 0 29.6684V5.22398C0 2.9425 2.02074 1.1499 4.59259 1.1499H119.407C121.979 1.1499 124 2.9425 124 5.22398V29.6684C124 31.9499 121.979 33.7425 119.407 33.7425Z" fill="black"/>
<path d="M119.407 1.80175C121.52 1.80175 123.265 3.3499 123.265 5.22398V29.6684C123.265 31.5425 121.52 33.0907 119.407 33.0907H4.59259C2.48 33.0907 0.734815 31.5425 0.734815 29.6684V5.22398C0.734815 3.3499 2.48 1.80175 4.59259 1.80175H119.407ZM119.407 1.1499H4.59259C2.02074 1.1499 0 3.02398 0 5.22398V29.6684C0 31.9499 2.02074 33.7425 4.59259 33.7425H119.407C121.979 33.7425 124 31.9499 124 29.6684V5.22398C124 3.02398 121.979 1.1499 119.407 1.1499Z" fill="#A6A6A6"/>
<path d="M43.5378 9.46135C43.5378 10.1132 43.3541 10.6836 42.8948 11.091C42.3437 11.5799 41.7007 11.8243 40.8741 11.8243C40.0474 11.8243 39.4044 11.5799 38.8533 11.091C38.3022 10.6021 38.0267 10.0317 38.0267 9.29839C38.0267 8.56505 38.3022 7.99468 38.8533 7.50579C39.4044 7.01691 40.0474 6.77246 40.8741 6.77246C41.2415 6.77246 41.6089 6.85394 41.9763 7.01691C42.3437 7.17987 42.6193 7.34283 42.803 7.58728L42.3437 7.99468C41.9763 7.58727 41.517 7.42431 40.8741 7.42431C40.323 7.42431 39.7719 7.58727 39.4045 7.99468C38.9452 8.32061 38.7615 8.8095 38.7615 9.37987C38.7615 9.95024 38.9452 10.4391 39.4045 10.7651C39.8637 11.091 40.323 11.3354 40.8741 11.3354C41.517 11.3354 41.9763 11.1725 42.4356 10.7651C42.7111 10.5206 42.8948 10.1947 42.8948 9.78727H40.8741V9.13542H43.5378V9.46135ZM47.763 7.42431H45.283V8.97246H47.5793V9.54283H45.283V11.091H47.763V11.7428H44.5482V6.85394H47.763V7.42431ZM50.7941 11.7428H50.0593V7.42431H48.4978V6.85394H52.3556V7.42431H50.7941V11.7428ZM55.0193 11.7428V6.85394H55.7541V11.7428H55.0193ZM58.877 11.7428H58.1422V7.42431H56.5807V6.85394H60.3467V7.42431H58.7852V11.7428H58.877ZM67.603 11.091C67.0519 11.5799 66.4089 11.8243 65.5822 11.8243C64.7556 11.8243 64.1126 11.5799 63.5615 11.091C63.0104 10.6021 62.7348 10.0317 62.7348 9.29839C62.7348 8.56505 63.0104 7.99468 63.5615 7.50579C64.1126 7.01691 64.7556 6.77246 65.5822 6.77246C66.4089 6.77246 67.0519 7.01691 67.603 7.50579C68.1541 7.99468 68.4296 8.56505 68.4296 9.29839C68.4296 10.0317 68.1541 10.6021 67.603 11.091ZM64.1126 10.6836C64.48 11.0095 65.0311 11.2539 65.5822 11.2539C66.1333 11.2539 66.6844 11.091 67.0519 10.6836C67.4193 10.3576 67.6948 9.86876 67.6948 9.29839C67.6948 8.72802 67.5111 8.23913 67.0519 7.9132C66.6844 7.58728 66.1333 7.34283 65.5822 7.34283C65.0311 7.34283 64.48 7.50579 64.1126 7.9132C63.7452 8.23913 63.4696 8.72802 63.4696 9.29839C63.4696 9.86876 63.6533 10.3576 64.1126 10.6836ZM69.44 11.7428V6.85394H70.2667L72.9304 10.6836V6.85394H73.6652V11.7428H72.9304L70.083 7.75024V11.7428H69.44Z" fill="white" stroke="white" stroke-width="1.18519" stroke-miterlimit="10"/>
<path d="M62.5511 18.9131C60.3467 18.9131 58.6015 20.3798 58.6015 22.4168C58.6015 24.3724 60.3467 25.9205 62.5511 25.9205C64.7555 25.9205 66.5007 24.4539 66.5007 22.4168C66.5007 20.2983 64.7555 18.9131 62.5511 18.9131ZM62.5511 24.4539C61.357 24.4539 60.3467 23.5576 60.3467 22.3353C60.3467 21.1131 61.357 20.2168 62.5511 20.2168C63.7452 20.2168 64.7555 21.0316 64.7555 22.3353C64.7555 23.5576 63.7452 24.4539 62.5511 24.4539ZM54.0089 18.9131C51.8044 18.9131 50.0592 20.3798 50.0592 22.4168C50.0592 24.3724 51.8044 25.9205 54.0089 25.9205C56.2133 25.9205 57.9585 24.4539 57.9585 22.4168C57.9585 20.2983 56.2133 18.9131 54.0089 18.9131ZM54.0089 24.4539C52.8148 24.4539 51.8044 23.5576 51.8044 22.3353C51.8044 21.1131 52.8148 20.2168 54.0089 20.2168C55.203 20.2168 56.2133 21.0316 56.2133 22.3353C56.2133 23.5576 55.203 24.4539 54.0089 24.4539ZM43.8133 19.9724V21.4391H47.763C47.6711 22.2539 47.3037 22.9057 46.8444 23.3131C46.2933 23.802 45.3748 24.3724 43.8133 24.3724C41.3333 24.3724 39.4963 22.6613 39.4963 20.4613C39.4963 18.2613 41.4252 16.5502 43.8133 16.5502C45.0992 16.5502 46.1096 17.0391 46.8444 17.6094L48.0385 16.5502C47.0281 15.7353 45.7422 15.0835 43.9052 15.0835C40.5985 15.0835 37.7511 17.5279 37.7511 20.4613C37.7511 23.3946 40.5985 25.8391 43.9052 25.8391C45.7422 25.8391 47.0281 25.3502 48.1304 24.2909C49.2326 23.3131 49.6 21.9279 49.6 20.8687C49.6 20.5428 49.6 20.2168 49.5081 19.9724H43.8133ZM85.5141 21.1131C85.1467 20.2983 84.2281 18.9131 82.2074 18.9131C80.1867 18.9131 78.5333 20.2983 78.5333 22.4168C78.5333 24.3724 80.1867 25.9205 82.3911 25.9205C84.1363 25.9205 85.2385 24.9428 85.6059 24.3724L84.32 23.5576C83.8607 24.1279 83.3096 24.5353 82.3911 24.5353C81.4726 24.5353 80.9215 24.2094 80.4622 23.4761L85.6978 21.5205L85.5141 21.1131ZM80.1867 22.2539C80.1867 20.9502 81.3807 20.2168 82.2074 20.2168C82.8504 20.2168 83.4933 20.5428 83.677 20.9502L80.1867 22.2539ZM75.8696 25.5946H77.6148V15.4094H75.8696V25.5946ZM73.1141 19.6465C72.6548 19.2391 71.92 18.8316 71.0015 18.8316C69.0726 18.8316 67.2355 20.3798 67.2355 22.3353C67.2355 24.2909 68.9807 25.7576 71.0015 25.7576C71.92 25.7576 72.6548 25.3502 73.0222 24.9428H73.1141V25.4316C73.1141 26.7353 72.2874 27.4687 71.0015 27.4687C69.9911 27.4687 69.2563 26.8168 69.0726 26.2465L67.603 26.8168C68.0622 27.7131 69.1644 28.8539 71.0933 28.8539C73.1141 28.8539 74.7674 27.7946 74.7674 25.2687V19.0761H73.1141V19.6465ZM71.0933 24.4539C69.8993 24.4539 68.8889 23.5576 68.8889 22.3353C68.8889 21.1131 69.8993 20.2168 71.0933 20.2168C72.2874 20.2168 73.2059 21.1131 73.2059 22.3353C73.2059 23.5576 72.2874 24.4539 71.0933 24.4539ZM93.5052 15.4094H89.3718V25.5946H91.117V21.765H93.5052C95.4341 21.765 97.2711 20.5428 97.2711 18.5872C97.2711 16.6316 95.4341 15.4094 93.5052 15.4094ZM93.597 20.2983H91.117V16.7946H93.597C94.883 16.7946 95.6178 17.7724 95.6178 18.5057C95.5259 19.402 94.7911 20.2983 93.597 20.2983ZM104.16 18.8316C102.874 18.8316 101.588 19.3205 101.129 20.3798L102.69 20.9502C103.058 20.3798 103.609 20.2168 104.252 20.2168C105.17 20.2168 105.997 20.7057 106.089 21.5205V21.602C105.813 21.4391 105.079 21.1946 104.344 21.1946C102.69 21.1946 101.037 22.0094 101.037 23.4761C101.037 24.8613 102.415 25.7576 103.884 25.7576C105.079 25.7576 105.63 25.2687 106.089 24.7798H106.181V25.5946H107.834V21.6835C107.65 19.8909 106.089 18.8316 104.16 18.8316ZM103.976 24.4539C103.425 24.4539 102.599 24.2094 102.599 23.5576C102.599 22.7428 103.609 22.4983 104.436 22.4983C105.17 22.4983 105.538 22.6613 105.997 22.8242C105.813 23.802 104.895 24.4539 103.976 24.4539ZM113.621 19.0761L111.692 23.4761H111.6L109.579 19.0761H107.742L110.773 25.2687L109.028 28.6909H110.773L115.458 19.0761H113.621ZM98.1896 25.5946H99.9348V15.4094H98.1896V25.5946Z" fill="white"/>
<path d="M9.55259 7.26123C9.27703 7.50568 9.18518 7.91308 9.18518 8.40197V26.4094C9.18518 26.8983 9.36888 27.3057 9.64444 27.5501L9.73629 27.6316L21.1259 17.5279V17.3649L9.55259 7.26123Z" fill="url(#paint0_linear_30_422)"/>
<path d="M24.8 20.9498L21.0341 17.6091V17.3647L24.8 14.0239L24.8918 14.1054L29.3926 16.3869C30.6785 17.0387 30.6785 18.098 29.3926 18.7499L24.8 20.9498Z" fill="url(#paint1_linear_30_422)"/>
<path d="M24.8919 20.8685L21.0341 17.4463L9.55261 27.6315C10.0119 28.0389 10.6548 28.0389 11.4815 27.713L24.8919 20.8685Z" fill="url(#paint2_linear_30_422)"/>
<path d="M24.8919 14.0264L11.4815 7.26346C10.6548 6.85605 10.0119 6.93753 9.55261 7.34494L21.0341 17.4486L24.8919 14.0264Z" fill="url(#paint3_linear_30_422)"/>
<path opacity="0.2" d="M24.8 20.7871L11.4815 27.4686C10.7467 27.876 10.1037 27.7945 9.64446 27.4686L9.55261 27.5501L9.64446 27.6316C10.1037 27.9575 10.7467 28.039 11.4815 27.6316L24.8 20.7871Z" fill="black"/>
<path opacity="0.12" d="M9.55259 27.4685C9.27703 27.2241 9.18518 26.8167 9.18518 26.3278V26.4092C9.18518 26.8981 9.36888 27.3055 9.64444 27.55V27.4685H9.55259ZM29.3926 18.5055L24.8 20.787L24.8918 20.8685L29.3926 18.587C30.0356 18.2611 30.3111 17.8537 30.3111 17.4463C30.3111 17.8537 29.9437 18.1796 29.3926 18.5055Z" fill="black"/>
<path opacity="0.25" d="M11.4815 7.34259L29.3926 16.387C29.9437 16.713 30.3111 17.0389 30.3111 17.4463C30.3111 17.0389 30.0356 16.6315 29.3926 16.3055L11.4815 7.26111C10.1956 6.60926 9.18518 7.09814 9.18518 8.40185V8.48333C9.18518 7.26111 10.1956 6.69074 11.4815 7.34259Z" fill="white"/>
</g>
<defs>
<linearGradient id="paint0_linear_30_422" x1="20.0237" y1="8.24716" x2="6.44611" y2="23.5519" gradientUnits="userSpaceOnUse">
<stop stop-color="#00A0FF"/>
<stop offset="0.007" stop-color="#00A1FF"/>
<stop offset="0.26" stop-color="#00BEFF"/>
<stop offset="0.512" stop-color="#00D2FF"/>
<stop offset="0.76" stop-color="#00DFFF"/>
<stop offset="1" stop-color="#00E3FF"/>
</linearGradient>
<linearGradient id="paint1_linear_30_422" x1="31.0771" y1="17.447" x2="8.85175" y2="17.447" gradientUnits="userSpaceOnUse">
<stop stop-color="#FFE000"/>
<stop offset="0.409" stop-color="#FFBD00"/>
<stop offset="0.775" stop-color="#FFA500"/>
<stop offset="1" stop-color="#FF9C00"/>
</linearGradient>
<linearGradient id="paint2_linear_30_422" x1="22.8041" y1="19.3171" x2="4.3928" y2="40.0716" gradientUnits="userSpaceOnUse">
<stop stop-color="#FF3A44"/>
<stop offset="1" stop-color="#C31162"/>
</linearGradient>
<linearGradient id="paint3_linear_30_422" x1="6.70245" y1="1.29575" x2="14.9243" y2="10.5641" gradientUnits="userSpaceOnUse">
<stop stop-color="#32A071"/>
<stop offset="0.069" stop-color="#2DA771"/>
<stop offset="0.476" stop-color="#15CF74"/>
<stop offset="0.801" stop-color="#06E775"/>
<stop offset="1" stop-color="#00F076"/>
</linearGradient>
<clipPath id="clip0_30_422">
<rect width="124" height="34" fill="white" transform="translate(0 0.223145)"/>
</clipPath>
</defs>
</svg>
