<svg width="1440" height="200" viewBox="0 0 1440 200" fill="none" xmlns="http://www.w3.org/2000/svg">
<path fill-rule="evenodd" clip-rule="evenodd" d="M0 -1.26395e-06L60 18.0396C120 36.0792 240 72.1585 360 102.224C480 132.291 600 156.343 720 174.383C840 192.423 960 204.449 1080 198.436C1200 192.423 1320 168.37 1380 156.343L1440 144.317V-1.26395e-06H1380C1320 -1.26395e-06 1200 -1.26395e-06 1080 -1.26395e-06C960 -1.26395e-06 840 -1.26395e-06 720 -1.26395e-06C600 -1.26395e-06 480 -1.26395e-06 360 -1.26395e-06C240 -1.26395e-06 120 -1.26395e-06 60 -1.26395e-06H0Z" fill="white"/>
</svg>
