<svg width="20" height="20" viewBox="0 0 20 20" fill="none" xmlns="http://www.w3.org/2000/svg">
<path d="M9.16662 14.1666H10.8333V9.16662H9.16662V14.1666ZM9.99996 7.49996C10.2361 7.49996 10.4341 7.41996 10.5941 7.25996C10.7541 7.09996 10.8338 6.90218 10.8333 6.66663C10.8333 6.43051 10.7533 6.23246 10.5933 6.07246C10.4333 5.91246 10.2355 5.83274 9.99996 5.83329C9.76385 5.83329 9.56579 5.91329 9.40579 6.07329C9.24579 6.23329 9.16607 6.43107 9.16662 6.66663C9.16662 6.90274 9.24662 7.10079 9.40662 7.26079C9.56662 7.42079 9.7644 7.50051 9.99996 7.49996ZM9.99996 18.3333C8.84718 18.3333 7.76385 18.1144 6.74996 17.6766C5.73607 17.2388 4.85413 16.6452 4.10413 15.8958C3.35413 15.1458 2.76051 14.2638 2.32329 13.25C1.88607 12.2361 1.66718 11.1527 1.66663 9.99996C1.66663 8.84718 1.88551 7.76385 2.32329 6.74996C2.76107 5.73607 3.35468 4.85413 4.10413 4.10413C4.85413 3.35413 5.73607 2.76051 6.74996 2.32329C7.76385 1.88607 8.84718 1.66718 9.99996 1.66663C11.1527 1.66663 12.2361 1.88551 13.25 2.32329C14.2638 2.76107 15.1458 3.35468 15.8958 4.10413C16.6458 4.85413 17.2397 5.73607 17.6775 6.74996C18.1152 7.76385 18.3338 8.84718 18.3333 9.99996C18.3333 11.1527 18.1144 12.2361 17.6766 13.25C17.2388 14.2638 16.6452 15.1458 15.8958 15.8958C15.1458 16.6458 14.2638 17.2397 13.25 17.6775C12.2361 18.1152 11.1527 18.3338 9.99996 18.3333ZM9.99996 16.6666C11.8611 16.6666 13.4375 16.0208 14.7291 14.7291C16.0208 13.4375 16.6666 11.8611 16.6666 9.99996C16.6666 8.13885 16.0208 6.56246 14.7291 5.27079C13.4375 3.97913 11.8611 3.33329 9.99996 3.33329C8.13885 3.33329 6.56246 3.97913 5.27079 5.27079C3.97913 6.56246 3.33329 8.13885 3.33329 9.99996C3.33329 11.8611 3.97913 13.4375 5.27079 14.7291C6.56246 16.0208 8.13885 16.6666 9.99996 16.6666Z" fill="#7EBD42"/>
</svg>
