<svg width="285" height="85" viewBox="0 0 285 85" fill="none" xmlns="http://www.w3.org/2000/svg">
<path d="M63.7071 2.57825H15.6887C7.02408 2.57825 0 9.64222 0 18.3561V66.6472C0 75.3611 7.02408 82.4251 15.6887 82.4251H63.7071C72.3718 82.4251 79.3958 75.3611 79.3958 66.6472V18.3561C79.3958 9.64222 72.3718 2.57825 63.7071 2.57825Z" fill="url(#paint0_linear_2_44)"/>
<path d="M38.9526 66.0096C37.4156 66.0067 35.8837 65.8324 34.385 65.4898C32.7812 65.1209 31.2091 64.6244 29.6834 64.0052C30.205 58.5287 31.8412 53.2188 34.4903 48.4054C37.1356 43.5809 40.597 39.2571 44.7189 35.6282C39.7468 38.1587 35.3058 41.6283 31.6382 45.8475C27.9907 50.0185 25.3515 54.9811 23.9267 60.3476C23.7447 60.2101 23.5721 60.0606 23.4098 59.9001L22.8954 59.3803C20.8055 57.3078 19.1377 54.8451 17.9857 52.1303C16.8707 49.4882 16.3009 46.6459 16.3108 43.7758C16.3018 40.6869 16.9334 37.6301 18.1651 34.8004C19.3833 31.965 21.1257 29.388 23.2998 27.2063C27.0068 23.4766 31.8121 21.0487 37.7156 19.9225C43.6191 18.7964 51.9033 18.6929 62.5682 19.6121C63.3929 30.6119 63.2557 39.0009 62.1567 44.7792C61.0576 50.5574 58.6777 55.2897 55.017 58.9761C52.8579 61.1724 50.3077 62.9412 47.4992 64.1904C44.8076 65.3895 41.8964 66.0092 38.9526 66.0096Z" fill="white"/>
<path d="M91.5147 42.5004V13.9598H97.8266V42.5004H91.5147ZM96.3383 19.4172V13.9598H111.694V19.4172H96.3383ZM96.3383 30.575V25.2813H110.489V30.575H96.3383ZM96.3383 42.5004V37.0021H111.891V42.5004H96.3383Z" fill="#1B2C0C"/>
<path d="M129.18 42.9456C127.164 42.9649 125.164 42.5872 123.292 41.8339C121.524 41.1191 119.915 40.0576 118.56 38.7112C117.204 37.3649 116.129 35.7606 115.396 33.9919C113.893 30.2719 113.893 26.109 115.396 22.389C116.118 20.6367 117.184 19.049 118.53 17.7208C119.888 16.3887 121.493 15.3374 123.253 14.6264C125.125 13.8734 127.124 13.4957 129.139 13.5147C131.195 13.4791 133.237 13.8503 135.15 14.6071C136.857 15.3064 138.418 16.3236 139.751 17.6053L135.53 21.8837C134.768 21.0662 133.844 20.4186 132.817 19.9827C131.651 19.5023 130.399 19.2664 129.139 19.2897C127.978 19.2769 126.825 19.4893 125.744 19.9153C124.74 20.3139 123.834 20.9282 123.091 21.7152C122.332 22.5328 121.744 23.495 121.361 24.545C120.936 25.7098 120.725 26.9426 120.739 28.1832C120.723 29.4374 120.934 30.6839 121.361 31.8624C121.744 32.9115 122.332 33.8729 123.091 34.6898C123.837 35.4786 124.741 36.0987 125.744 36.5089C126.822 36.9482 127.976 37.1674 129.139 37.1538C130.432 37.1827 131.717 36.9494 132.917 36.468C133.96 36.0289 134.904 35.3823 135.693 34.567L139.952 38.8526C138.581 40.1232 136.995 41.1363 135.269 41.8436C133.513 42.5799 131.483 42.9472 129.18 42.9456Z" fill="#1B2C0C"/>
<path d="M155.83 42.9865C153.798 43.008 151.783 42.6228 149.901 41.8532C148.125 41.1214 146.508 40.0509 145.137 38.701C143.776 37.3609 142.696 35.7595 141.962 33.9919C140.462 30.2646 140.462 26.097 141.962 22.3697C142.693 20.613 143.764 19.0201 145.114 17.6841C146.463 16.348 148.063 15.2955 149.822 14.5879C153.623 13.1056 157.838 13.1056 161.639 14.5879C163.407 15.3022 165.019 16.3593 166.381 17.6992C167.735 19.0341 168.808 20.6289 169.537 22.389C171.037 26.123 171.037 30.2964 169.537 34.0304C168.811 35.7869 167.746 37.3809 166.403 38.7202C165.047 40.0635 163.442 41.1263 161.68 41.8484C159.824 42.6148 157.835 43.0017 155.83 42.9865ZM155.751 37.2115C157.305 37.2454 158.84 36.8545 160.191 36.0806C161.459 35.3301 162.485 34.2282 163.146 32.9067C163.867 31.443 164.226 29.8259 164.192 28.1929C164.209 26.9465 164.005 25.7072 163.589 24.533C163.211 23.4784 162.622 22.5128 161.859 21.696C161.11 20.9021 160.198 20.2814 159.186 19.8768C158.095 19.4516 156.933 19.2408 155.763 19.256C154.209 19.2214 152.675 19.6053 151.319 20.3677C150.05 21.0953 149.017 22.1766 148.345 23.4814C147.623 24.9432 147.267 26.5609 147.309 28.1929C147.294 29.4454 147.498 30.6908 147.912 31.872C148.284 32.9283 148.865 33.8976 149.621 34.721C150.367 35.5226 151.28 36.1501 152.293 36.5594C153.396 37.0028 154.575 37.222 155.763 37.2043L155.751 37.2115Z" fill="#1B2C0C"/>
<path d="M182.359 42.5004L171.427 13.9598H178.179L186.501 37.0431H183.728L192.169 13.9598H198.831L187.776 42.5004H182.359Z" fill="#1B2C0C"/>
<path d="M202.18 42.5004V13.9598H208.49V42.5004H202.18Z" fill="#1B2C0C"/>
<path d="M212.026 19.4991V13.9647H236.103V19.4991H212.026ZM220.91 42.5005V14.3641H227.22V42.5005H220.91Z" fill="#1B2C0C"/>
<path d="M234.003 42.5004L245.248 13.9598H250.957L262.093 42.5004H255.419L246.923 18.8084H249.215L240.573 42.498L234.003 42.5004ZM240.396 37.327V32.1511H255.872V37.3366L240.396 37.327Z" fill="#1B2C0C"/>
<path d="M265.124 42.5004V13.9598H271.436V42.5004H265.124ZM269.988 42.5004V36.9227H284.009V42.5004H269.988Z" fill="#1B2C0C"/>
<path d="M189.147 73.9767V54.2719H191.801V73.9767H189.147ZM190.954 56.7142V54.2719H201.654V56.7142H190.954ZM190.954 65.3166V62.8742H201.175V65.3166H190.954Z" fill="#595C61"/>
<path d="M213.711 74.2606C212.395 74.2738 211.091 74.0176 209.878 73.5075C208.664 72.9974 207.567 72.2442 206.652 71.2937C205.749 70.3568 205.035 69.2529 204.549 68.0429C203.551 65.5029 203.551 62.6759 204.549 60.1359C205.033 58.936 205.742 57.8413 206.638 56.9115C207.527 55.9843 208.593 55.2476 209.772 54.7459C212.26 53.7225 215.048 53.7225 217.536 54.7459C218.719 55.2504 219.789 55.9866 220.685 56.9115C222.068 58.3699 223.003 60.1985 223.379 62.1779C223.754 64.1574 223.554 66.2037 222.803 68.0717C222.311 69.2744 221.597 70.3726 220.7 71.3082C219.794 72.2507 218.708 72.9985 217.506 73.506C216.305 74.0136 215.014 74.2703 213.711 74.2606ZM213.665 71.7052C214.94 71.7385 216.199 71.4117 217.299 70.7617C218.398 70.1118 219.295 69.1649 219.886 68.0284C220.524 66.8186 220.845 65.4656 220.819 64.0966C220.831 63.0633 220.648 62.0371 220.281 61.0719C219.942 60.18 219.434 59.3628 218.785 58.6657C218.151 57.987 217.381 57.45 216.527 57.0896C215.616 56.7129 214.64 56.5246 213.656 56.5361C212.362 56.5089 211.087 56.842 209.971 57.4987C208.907 58.142 208.038 59.0645 207.456 60.1672C206.828 61.3757 206.513 62.7237 206.54 64.087C206.53 65.1273 206.707 66.1608 207.061 67.1381C207.385 68.0315 207.885 68.8499 208.53 69.5444C209.166 70.222 209.935 70.7588 210.789 71.1205C211.697 71.5132 212.677 71.7123 213.665 71.7052Z" fill="#595C61"/>
<path d="M236.297 74.2606C234.982 74.2738 233.678 74.0176 232.465 73.5075C231.251 72.9974 230.154 72.2442 229.239 71.2937C228.335 70.3575 227.621 69.2534 227.136 68.0429C226.137 65.5029 226.137 62.6759 227.136 60.1359C227.619 58.936 228.329 57.8413 229.225 56.9115C230.113 55.9843 231.18 55.2476 232.359 54.7459C234.847 53.7225 237.635 53.7225 240.123 54.7459C241.305 55.2504 242.376 55.9866 243.272 56.9115C245.127 58.8436 246.163 61.4243 246.163 64.1098C246.163 66.7954 245.127 69.3761 243.272 71.3082C242.367 72.251 241.281 72.999 240.08 73.5065C238.879 74.0141 237.588 74.2707 236.285 74.2606H236.297ZM236.24 71.7052C237.518 71.7421 238.781 71.417 239.884 70.7669C240.988 70.1168 241.887 69.1679 242.48 68.0284C243.118 66.8186 243.439 65.4656 243.413 64.0966C243.425 63.0633 243.242 62.0371 242.875 61.0719C242.536 60.18 242.028 59.3628 241.379 58.6657C240.744 57.9876 239.975 57.4507 239.121 57.0896C238.21 56.713 237.234 56.5248 236.249 56.5361C234.956 56.5095 233.681 56.8426 232.565 57.4987C231.502 58.1428 230.634 59.0652 230.052 60.1672C229.423 61.3752 229.108 62.7236 229.136 64.087C229.125 65.1274 229.302 66.1611 229.658 67.1381C229.981 68.0315 230.481 68.8499 231.127 69.5444C231.762 70.222 232.532 70.7588 233.385 71.1205C234.287 71.5106 235.259 71.7096 236.24 71.7052Z" fill="#595C61"/>
<path d="M249.794 73.9767V54.2719H252.448V73.9767H249.794ZM251.546 73.9767V71.5343H256.994C258.326 71.565 259.642 71.2369 260.805 70.5839C261.883 69.9644 262.768 69.0553 263.361 67.9586C263.99 66.7715 264.307 65.4418 264.28 64.0966C264.305 62.7591 263.983 61.4379 263.346 60.2634C262.748 59.1689 261.858 58.2639 260.777 57.6502C259.619 57.0098 258.315 56.687 256.994 56.7142H251.574V54.2719H257.051C258.409 54.2578 259.756 54.5087 261.018 55.0106C262.194 55.4773 263.264 56.1769 264.165 57.0676C265.067 57.9584 265.781 59.0223 266.265 60.1961C267.264 62.7069 267.264 65.5079 266.265 68.0188C265.786 69.1889 265.081 70.252 264.191 71.1469C263.294 72.0532 262.221 72.7648 261.04 73.238C259.786 73.7381 258.448 73.989 257.099 73.9767H251.546Z" fill="#595C61"/>
<path d="M276.135 74.2606C274.589 74.2606 273.272 73.9767 272.182 73.4088C271.048 72.8056 270.055 71.9636 269.273 70.94L271.079 69.1209C271.639 69.9345 272.375 70.6093 273.233 71.094C274.159 71.5669 275.188 71.797 276.226 71.7629C277.394 71.7629 278.33 71.5071 279.035 70.9953C279.373 70.763 279.647 70.4487 279.833 70.0815C280.018 69.7144 280.108 69.3062 280.095 68.8947C280.126 68.2585 279.947 67.6299 279.585 67.1068C279.222 66.6309 278.754 66.247 278.217 65.9855C277.609 65.6783 276.982 65.4122 276.339 65.189C275.661 64.9532 274.983 64.6974 274.307 64.4214C273.647 64.1589 273.021 63.8162 272.443 63.4012C271.868 62.9814 271.398 62.4317 271.072 61.7962C270.699 61.0185 270.52 60.1613 270.551 59.2985C270.52 58.2867 270.801 57.2902 271.355 56.4447C271.908 55.6454 272.67 55.0165 273.558 54.628C274.549 54.188 275.624 53.9696 276.707 53.9879C277.897 53.968 279.076 54.2258 280.15 54.7411C281.116 55.2014 281.965 55.8761 282.634 56.7142L280.827 58.5309C280.308 57.9012 279.671 57.3804 278.951 56.9981C278.235 56.6461 277.446 56.4705 276.65 56.4856C275.594 56.4856 274.756 56.7182 274.137 57.1834C273.834 57.4047 273.59 57.6981 273.427 58.0374C273.264 58.3767 273.188 58.7513 273.204 59.1277C273.177 59.7092 273.364 60.2803 273.728 60.7327C274.111 61.1662 274.576 61.518 275.097 61.7673C275.705 62.0694 276.332 62.3307 276.975 62.5494C277.662 62.7852 278.344 63.0451 279.021 63.329C279.686 63.6062 280.313 63.9694 280.885 64.4094C281.462 64.8593 281.93 65.4352 282.253 66.0938C282.627 66.906 282.806 67.7955 282.775 68.6901C282.775 70.4323 282.177 71.7958 280.983 72.7808C279.788 73.7657 278.172 74.259 276.135 74.2606Z" fill="#595C61"/>
<defs>
<linearGradient id="paint0_linear_2_44" x1="63.9416" y1="0.270646" x2="15.0411" y2="84.4904" gradientUnits="userSpaceOnUse">
<stop stop-color="#7EBD42"/>
<stop offset="1" stop-color="#6EAF2B"/>
</linearGradient>
</defs>
</svg>
