<svg width="114" height="33" viewBox="0 0 114 33" fill="none" xmlns="http://www.w3.org/2000/svg">
<g clip-path="url(#clip0_30_14)">
<path d="M25.4828 0.808258H6.27548C2.80963 0.808258 0 3.58339 0 7.00669V25.9782C0 29.4015 2.80963 32.1766 6.27548 32.1766H25.4828C28.9487 32.1766 31.7583 29.4015 31.7583 25.9782V7.00669C31.7583 3.58339 28.9487 0.808258 25.4828 0.808258Z" fill="url(#paint0_linear_30_14)"/>
<path d="M15.5811 25.7277C14.9663 25.7266 14.3535 25.6581 13.754 25.5235C13.1125 25.3785 12.4836 25.1835 11.8734 24.9402C12.082 22.7888 12.7365 20.7027 13.7961 18.8118C14.8543 16.9164 16.2388 15.2178 17.8876 13.7921C15.8988 14.7863 14.1223 16.1493 12.6553 17.8069C11.1963 19.4455 10.1406 21.3951 9.57068 23.5034C9.49792 23.4493 9.42886 23.3906 9.36396 23.3275L9.15819 23.1233C8.32221 22.3091 7.65511 21.3417 7.19429 20.2751C6.7483 19.2371 6.52038 18.1205 6.52434 16.993C6.52076 15.7795 6.77338 14.5786 7.26607 13.4669C7.75336 12.353 8.45032 11.3406 9.31993 10.4835C10.8027 9.01829 12.7249 8.06447 15.0863 7.62206C17.4477 7.17965 20.7613 7.139 25.0273 7.50011C25.3572 11.8215 25.3023 15.1171 24.8627 17.3872C24.4231 19.6572 23.4711 21.5163 22.0068 22.9645C21.1432 23.8274 20.1231 24.5223 18.9997 25.013C17.9231 25.4841 16.7586 25.7275 15.5811 25.7277Z" fill="white"/>
<path d="M36.6059 16.492V5.27957H39.1306V16.492H36.6059ZM38.5353 7.42355V5.27957H44.6778V7.42355H38.5353ZM38.5353 11.807V9.72728H44.1954V11.807H38.5353ZM38.5353 16.492V14.3319H44.7563V16.492H38.5353Z" fill="#1B2C0C"/>
<path d="M51.672 16.6669C50.8655 16.6744 50.0654 16.5261 49.3166 16.2301C48.6096 15.9493 47.9662 15.5323 47.4239 15.0033C46.8817 14.4744 46.4515 13.8442 46.1583 13.1493C45.5573 11.6879 45.5573 10.0525 46.1583 8.59103C46.4471 7.90264 46.8735 7.27888 47.4121 6.75712C47.9553 6.23378 48.5972 5.82076 49.3013 5.54144C50.0498 5.24563 50.8496 5.09726 51.6557 5.10471C52.4778 5.09072 53.2947 5.23655 54.0599 5.53388C54.7429 5.80857 55.3674 6.2082 55.9003 6.71174L54.212 8.39251C53.9071 8.07135 53.5374 7.81694 53.1267 7.64572C52.6603 7.45697 52.1597 7.36432 51.6557 7.37347C51.1912 7.36842 50.7301 7.45187 50.2976 7.61925C49.896 7.77584 49.5337 8.01716 49.2362 8.32634C48.9327 8.64753 48.6974 9.02554 48.5443 9.43803C48.3743 9.89564 48.29 10.38 48.2955 10.8673C48.2892 11.36 48.3736 11.8498 48.5443 12.3127C48.6976 12.7249 48.9328 13.1026 49.2362 13.4235C49.5347 13.7334 49.8965 13.977 50.2976 14.1381C50.7288 14.3107 51.1905 14.3969 51.6557 14.3915C52.1727 14.4028 52.6866 14.3112 53.1669 14.1221C53.5842 13.9496 53.9618 13.6955 54.2771 13.3753L55.9807 15.0589C55.4325 15.5581 54.7982 15.956 54.1077 16.2339C53.4052 16.5232 52.5933 16.6675 51.672 16.6669Z" fill="#1B2C0C"/>
<path d="M62.3318 16.6829C61.5192 16.6914 60.713 16.54 59.9602 16.2377C59.2501 15.9502 58.603 15.5296 58.0547 14.9993C57.5102 14.4728 57.0783 13.8437 56.7846 13.1493C56.1848 11.685 56.1848 10.0478 56.7846 8.58346C57.0771 7.8933 57.5057 7.26754 58.0454 6.74267C58.5852 6.2178 59.2254 5.80431 59.9286 5.52631C61.4491 4.94399 63.135 4.94399 64.6555 5.52631C65.3629 5.80691 66.0074 6.22223 66.5525 6.7486C67.0939 7.27304 67.5232 7.89957 67.8148 8.59102C68.4146 10.0579 68.4146 11.6975 67.8148 13.1645C67.5244 13.8545 67.0983 14.4807 66.5611 15.0069C66.0187 15.5346 65.3769 15.9521 64.6718 16.2358C63.9296 16.5369 63.1341 16.6889 62.3318 16.6829ZM62.3002 14.4142C62.9221 14.4275 63.536 14.2739 64.0765 13.9699C64.5836 13.675 64.994 13.2421 65.2585 12.723C65.5468 12.1479 65.6903 11.5127 65.6767 10.8711C65.6835 10.3815 65.6019 9.89459 65.4356 9.43329C65.2844 9.01899 65.0489 8.63968 64.7436 8.31877C64.4438 8.0069 64.0791 7.76306 63.6746 7.60411C63.238 7.43704 62.7731 7.35425 62.305 7.36022C61.6837 7.34663 61.0701 7.49742 60.5277 7.79695C60.02 8.08277 59.6068 8.5076 59.3381 9.02019C59.049 9.59448 58.9067 10.23 58.9237 10.8711C58.9174 11.3632 58.999 11.8525 59.1649 12.3165C59.3135 12.7315 59.546 13.1123 59.8482 13.4358C60.1469 13.7507 60.5118 13.9972 60.9172 14.158C61.3583 14.3322 61.83 14.4183 62.305 14.4113L62.3002 14.4142Z" fill="#1B2C0C"/>
<path d="M72.9438 16.492L68.5709 5.27957H71.2718L74.6004 14.348H73.4912L76.8677 5.27957H79.5322L75.1106 16.492H72.9438Z" fill="#1B2C0C"/>
<path d="M80.8721 16.492V5.27957H83.3959V16.492H80.8721Z" fill="#1B2C0C"/>
<path d="M84.8104 7.45569V5.28146H94.4414V7.45569H84.8104ZM88.364 16.492V5.43839H90.8878V16.492H88.364Z" fill="#1B2C0C"/>
<path d="M93.6011 16.492L98.0993 5.27957H100.383L104.837 16.492H102.168L98.7692 7.18438H99.6861L96.2292 16.491L93.6011 16.492ZM96.1584 14.4595V12.4262H102.349V14.4633L96.1584 14.4595Z" fill="#1B2C0C"/>
<path d="M106.05 16.492V5.27957H108.574V16.492H106.05ZM107.995 16.492V14.3007H113.604V16.492H107.995Z" fill="#1B2C0C"/>
<path d="M75.6589 28.8576V21.1165H76.7203V28.8576H75.6589ZM76.3815 22.0759V21.1165H80.6615V22.0759H76.3815ZM76.3815 25.4555V24.496H80.4701V25.4555H76.3815Z" fill="#595C61"/>
<path d="M85.4842 28.9692C84.9582 28.9744 84.4365 28.8737 83.9511 28.6733C83.4657 28.4729 83.0267 28.177 82.6609 27.8036C82.2996 27.4355 82.0139 27.0018 81.8196 26.5265C81.4202 25.5286 81.4202 24.418 81.8196 23.4202C82.0131 22.9488 82.2968 22.5187 82.6551 22.1534C83.0106 21.7892 83.4371 21.4998 83.9089 21.3027C84.9041 20.9006 86.0194 20.9006 87.0146 21.3027C87.4874 21.5008 87.9156 21.7901 88.2741 22.1534C88.8272 22.7264 89.2013 23.4447 89.3515 24.2224C89.5018 25 89.4217 25.804 89.1211 26.5378C88.9244 27.0103 88.639 27.4417 88.2798 27.8093C87.9177 28.1796 87.4832 28.4733 87.0026 28.6727C86.522 28.8721 86.0055 28.973 85.4842 28.9692ZM85.466 27.9652C85.9761 27.9783 86.4796 27.8499 86.9194 27.5946C87.3593 27.3393 87.7178 26.9673 87.9544 26.5208C88.2095 26.0455 88.3379 25.514 88.3277 24.9762C88.3323 24.5702 88.2592 24.1671 88.1123 23.7879C87.9768 23.4375 87.7736 23.1165 87.5142 22.8426C87.2602 22.576 86.9524 22.365 86.6107 22.2234C86.2466 22.0754 85.8559 22.0015 85.4622 22.006C84.945 21.9953 84.4349 22.1261 83.9883 22.3841C83.5629 22.6368 83.2151 22.9993 82.9825 23.4325C82.7313 23.9072 82.6052 24.4368 82.6159 24.9724C82.612 25.3811 82.6827 25.7871 82.8245 26.171C82.954 26.522 83.1539 26.8435 83.4122 27.1163C83.6665 27.3825 83.9742 27.5934 84.3156 27.7355C84.6789 27.8898 85.0706 27.968 85.466 27.9652Z" fill="#595C61"/>
<path d="M94.5189 28.9692C93.9928 28.9744 93.4712 28.8737 92.9858 28.6733C92.5004 28.4729 92.0614 28.177 91.6956 27.8036C91.3339 27.4358 91.0482 27.002 90.8543 26.5265C90.4549 25.5286 90.4549 24.418 90.8543 23.4202C91.0477 22.9488 91.3314 22.5187 91.6898 22.1534C92.0453 21.7892 92.4718 21.4998 92.9436 21.3027C93.9388 20.9006 95.054 20.9006 96.0492 21.3027C96.5221 21.5008 96.9503 21.7901 97.3087 22.1534C98.0507 22.9125 98.4653 23.9263 98.4653 24.9814C98.4653 26.0364 98.0507 27.0502 97.3087 27.8093C96.9469 28.1797 96.5126 28.4735 96.0321 28.6729C95.5517 28.8723 95.0352 28.9731 94.5141 28.9692H94.5189ZM94.4959 27.9652C95.0072 27.9798 95.5124 27.852 95.9537 27.5966C96.395 27.3412 96.7548 26.9684 96.992 26.5208C97.247 26.0455 97.3755 25.514 97.3652 24.9762C97.3698 24.5702 97.2968 24.1671 97.1499 23.7879C97.0143 23.4375 96.8112 23.1165 96.5517 22.8426C96.2976 22.5762 95.9898 22.3653 95.6482 22.2234C95.2841 22.0754 94.8935 22.0015 94.4998 22.006C93.9826 21.9955 93.4725 22.1264 93.0259 22.3841C92.6009 22.6372 92.2536 22.9995 92.021 23.4325C91.7693 23.907 91.6432 24.4368 91.6544 24.9724C91.6501 25.3811 91.7208 25.7872 91.863 26.171C91.9925 26.522 92.1924 26.8435 92.4507 27.1163C92.705 27.3825 93.0127 27.5934 93.3541 27.7355C93.7147 27.8888 94.1034 27.967 94.4959 27.9652Z" fill="#595C61"/>
<path d="M99.9177 28.8576V21.1165H100.979V28.8576H99.9177ZM100.618 28.8576V27.8982H102.798C103.33 27.9102 103.857 27.7813 104.322 27.5248C104.753 27.2814 105.107 26.9243 105.344 26.4934C105.596 26.0271 105.723 25.5047 105.712 24.9762C105.722 24.4507 105.593 23.9317 105.339 23.4703C105.099 23.0403 104.743 22.6847 104.311 22.4437C103.848 22.1921 103.326 22.0653 102.798 22.076H100.63V21.1165H102.821C103.363 21.1109 103.902 21.2095 104.407 21.4067C104.877 21.59 105.306 21.8649 105.666 22.2148C106.027 22.5648 106.312 22.9827 106.506 23.4438C106.906 24.4302 106.906 25.5306 106.506 26.517C106.314 26.9767 106.032 27.3944 105.676 27.746C105.317 28.102 104.889 28.3816 104.416 28.5674C103.914 28.7639 103.379 28.8625 102.84 28.8576H100.618Z" fill="#595C61"/>
<path d="M110.454 28.9692C109.836 28.9692 109.309 28.8576 108.873 28.6345C108.419 28.3976 108.022 28.0668 107.709 27.6646L108.432 26.95C108.656 27.2697 108.95 27.5347 109.293 27.7252C109.663 27.9109 110.075 28.0013 110.49 27.9879C110.958 27.9879 111.332 27.8874 111.614 27.6864C111.749 27.5951 111.859 27.4716 111.933 27.3274C112.007 27.1832 112.043 27.0228 112.038 26.8611C112.05 26.6112 111.979 26.3643 111.834 26.1588C111.689 25.9718 111.501 25.821 111.287 25.7182C111.044 25.5975 110.793 25.493 110.535 25.4053C110.264 25.3127 109.993 25.2122 109.723 25.1038C109.459 25.0006 109.208 24.866 108.977 24.703C108.747 24.5381 108.559 24.3221 108.429 24.0725C108.28 23.7669 108.208 23.4302 108.22 23.0912C108.208 22.6937 108.32 22.3022 108.542 21.9701C108.763 21.6561 109.068 21.409 109.423 21.2564C109.82 21.0835 110.25 20.9977 110.683 21.0049C111.159 20.9971 111.63 21.0984 112.06 21.3008C112.446 21.4817 112.786 21.7467 113.053 22.0759L112.331 22.7897C112.123 22.5423 111.868 22.3376 111.581 22.1875C111.294 22.0492 110.979 21.9802 110.66 21.9861C110.237 21.9861 109.903 22.0775 109.655 22.2603C109.534 22.3472 109.436 22.4625 109.371 22.5958C109.306 22.7291 109.275 22.8762 109.282 23.0241C109.271 23.2525 109.346 23.4769 109.491 23.6546C109.644 23.8249 109.831 23.9632 110.039 24.0611C110.282 24.1798 110.533 24.2824 110.79 24.3683C111.065 24.461 111.338 24.5631 111.608 24.6746C111.874 24.7835 112.125 24.9262 112.354 25.0991C112.585 25.2758 112.772 25.5021 112.901 25.7608C113.051 26.0799 113.122 26.4293 113.11 26.7808C113.11 27.4652 112.871 28.0009 112.393 28.3878C111.915 28.7748 111.269 28.9686 110.454 28.9692Z" fill="#595C61"/>
</g>
<defs>
<linearGradient id="paint0_linear_30_14" x1="25.5766" y1="-0.0982993" x2="6.53889" y2="33.286" gradientUnits="userSpaceOnUse">
<stop stop-color="#7EBD42"/>
<stop offset="1" stop-color="#6EAF2B"/>
</linearGradient>
<clipPath id="clip0_30_14">
<rect width="114" height="33" fill="white"/>
</clipPath>
</defs>
</svg>
