<svg width="65" height="65" viewBox="0 0 65 65" fill="none" xmlns="http://www.w3.org/2000/svg">
<path d="M6.5 28.1667H23.8333C24.9826 28.1667 26.0848 27.7101 26.8975 26.8975C27.7101 26.0848 28.1667 24.9826 28.1667 23.8333V10.8333C28.1667 9.68406 27.7101 8.58186 26.8975 7.7692C26.0848 6.95655 24.9826 6.5 23.8333 6.5H10.8333C9.68406 6.5 8.58186 6.95655 7.7692 7.7692C6.95655 8.58186 6.5 9.68406 6.5 10.8333V28.1667ZM6.5 28.1667V43.3333C6.5 47.3558 8.09791 51.2135 10.9422 54.0578C13.7865 56.9021 17.6442 58.5 21.6667 58.5M36.8333 28.1667H54.1666C55.3159 28.1667 56.4181 27.7101 57.2308 26.8975C58.0434 26.0848 58.5 24.9826 58.5 23.8333V10.8333C58.5 9.68406 58.0434 8.58186 57.2308 7.7692C56.4181 6.95655 55.3159 6.5 54.1666 6.5H41.1666C40.0174 6.5 38.9152 6.95655 38.1025 7.7692C37.2899 8.58186 36.8333 9.68406 36.8333 10.8333V28.1667ZM36.8333 28.1667V43.3333C36.8333 47.3558 38.4312 51.2135 41.2755 54.0578C44.1198 56.9021 47.9775 58.5 52 58.5" stroke="#7EBD42"/>
</svg>
