<svg width="15" height="16" viewBox="0 0 15 16" fill="none" xmlns="http://www.w3.org/2000/svg">
<g clip-path="url(#clip0_30_57)">
<path d="M7.36061 10.6786C10.0234 10.6786 12.182 8.51995 12.182 5.85715C12.182 3.19435 10.0234 1.03572 7.36061 1.03572C4.69781 1.03572 2.53918 3.19435 2.53918 5.85715C2.53918 8.51995 4.69781 10.6786 7.36061 10.6786Z" stroke="#7EBD42" stroke-width="1.3" stroke-linecap="round" stroke-linejoin="round"/>
<path d="M7.36063 8.00001C8.5441 8.00001 9.50349 7.04062 9.50349 5.85715C9.50349 4.67368 8.5441 3.71429 7.36063 3.71429C6.17716 3.71429 5.21777 4.67368 5.21777 5.85715C5.21777 7.04062 6.17716 8.00001 7.36063 8.00001Z" stroke="#7EBD42" stroke-width="1.3" stroke-linecap="round" stroke-linejoin="round"/>
<path d="M6.42851 10.5929L5.48565 14.5571C5.467 14.6325 5.4325 14.703 5.38447 14.7639C5.33643 14.8249 5.27596 14.8749 5.20708 14.9107C5.13438 14.9423 5.05598 14.9586 4.97673 14.9586C4.89747 14.9586 4.81907 14.9423 4.74637 14.9107L1.18923 13.3571C1.11461 13.3219 1.04896 13.2702 0.997193 13.2059C0.945427 13.1416 0.908894 13.0664 0.890336 12.986C0.871778 12.9056 0.871678 12.822 0.890042 12.7416C0.908406 12.6611 0.944758 12.5858 0.996369 12.5214L3.74994 9.07143M8.57137 10.5393L9.53566 14.5571C9.55483 14.6338 9.59071 14.7052 9.64072 14.7663C9.69073 14.8274 9.75364 14.8767 9.82494 14.9107C9.89565 14.9427 9.97235 14.9592 10.0499 14.9592C10.1275 14.9592 10.2042 14.9427 10.2749 14.9107L13.8107 13.3571C13.8864 13.3223 13.9529 13.2702 14.005 13.2051C14.0571 13.14 14.0933 13.0637 14.1107 12.9821C14.131 12.9024 14.1318 12.8189 14.1132 12.7387C14.0946 12.6586 14.0569 12.584 14.0035 12.5214L11.1321 8.86786" stroke="#7EBD42" stroke-width="1.3" stroke-linecap="round" stroke-linejoin="round"/>
</g>
<defs>
<clipPath id="clip0_30_57">
<rect width="15" height="15" fill="white" transform="translate(0 0.5)"/>
</clipPath>
</defs>
</svg>
