<svg width="15" height="16" viewBox="0 0 15 16" fill="none" xmlns="http://www.w3.org/2000/svg">
<path d="M1.97564 3.29375C2.70059 2.56849 3.67301 2.14422 4.69776 2.10608C5.72251 2.06795 6.72377 2.41876 7.50064 3.08812C8.27673 2.41979 9.27663 2.06927 10.3001 2.10672C11.3237 2.14418 12.2953 2.56685 13.0204 3.29013C13.7456 4.0134 14.1708 4.98389 14.211 6.0073C14.2511 7.03072 13.9032 8.03153 13.2369 8.80937L8.38376 13.6787C8.16079 13.9018 7.86175 14.0323 7.54658 14.0441C7.23142 14.056 6.92344 13.9482 6.68439 13.7425L6.61564 13.6787L1.76314 8.81C1.09701 8.03279 0.748832 7.03276 0.78823 6.00991C0.827629 4.98706 1.2517 4.01741 1.97564 3.29375ZM2.85939 4.17687C2.3481 4.68814 2.05337 5.37668 2.03638 6.09953C2.01939 6.82239 2.28144 7.52402 2.76814 8.05875L2.85939 8.15437L7.50001 12.795L10.8144 9.48L8.60501 7.27062L7.94251 7.93312C7.76843 8.10729 7.56174 8.24546 7.33426 8.33975C7.10678 8.43404 6.86295 8.4826 6.6167 8.48265C6.11938 8.48277 5.64238 8.28532 5.29064 7.93375C4.93889 7.58217 4.74122 7.10526 4.7411 6.60794C4.74098 6.11061 4.93843 5.63361 5.29001 5.28187L6.60376 3.96812C6.081 3.55077 5.42663 3.33336 4.75805 3.35489C4.08948 3.37643 3.45045 3.6355 2.95564 4.08562L2.85939 4.17687ZM8.16314 5.945C8.28034 5.82783 8.43928 5.762 8.60501 5.762C8.77074 5.762 8.92968 5.82783 9.04689 5.945L11.6981 8.59625L12.1406 8.15437C12.6603 7.63508 12.9561 6.93307 12.9649 6.19847C12.9737 5.46387 12.6947 4.75501 12.1875 4.22347C11.6804 3.69193 10.9854 3.37992 10.2512 3.35415C9.51703 3.32839 8.80189 3.59093 8.25876 4.08562L8.16314 4.17687L6.17439 6.16562C6.06605 6.27388 6.00124 6.41815 5.99226 6.57104C5.98327 6.72392 6.03073 6.87479 6.12564 6.995L6.17439 7.05C6.28272 7.15824 6.42703 7.22293 6.57992 7.2318C6.73281 7.24067 6.88363 7.1931 7.00376 7.09812L7.05814 7.05L8.16314 5.945Z" fill="#7EBD42"/>
</svg>
