<svg width="20" height="20" viewBox="0 0 20 20" fill="none" xmlns="http://www.w3.org/2000/svg">
<g clip-path="url(#clip0_30_338)">
<path d="M7.6268 4.5065C8.68263 2.61317 9.21013 1.6665 9.9993 1.6665C10.7885 1.6665 11.316 2.61317 12.3718 4.5065L12.6451 4.9965C12.9451 5.53484 13.0951 5.804 13.3285 5.9815C13.5618 6.159 13.8535 6.22484 14.4368 6.3565L14.9668 6.4765C17.0168 6.94067 18.041 7.17234 18.2851 7.9565C18.5285 8.73984 17.8301 9.55734 16.4326 11.1915L16.071 11.614C15.6743 12.0782 15.4751 12.3107 15.386 12.5973C15.2968 12.8848 15.3268 13.1948 15.3868 13.814L15.4418 14.3782C15.6526 16.559 15.7585 17.649 15.1201 18.1332C14.4818 18.6182 13.5218 18.1757 11.6035 17.2923L11.106 17.064C10.561 16.8123 10.2885 16.6873 9.9993 16.6873C9.71013 16.6873 9.43763 16.8123 8.8918 17.064L8.39597 17.2923C6.4768 18.1757 5.5168 18.6173 4.8793 18.134C4.24013 17.649 4.34597 16.559 4.5568 14.3782L4.6118 13.8148C4.6718 13.1948 4.7018 12.8848 4.6118 12.5982C4.52347 12.3107 4.3243 12.0782 3.92763 11.6148L3.56597 11.1915C2.16847 9.55817 1.47013 8.74067 1.71347 7.9565C1.95763 7.17234 2.98263 6.93984 5.03263 6.4765L5.56263 6.3565C6.14513 6.22484 6.43597 6.159 6.67013 5.9815C6.90347 5.804 7.05347 5.53484 7.35347 4.9965L7.6268 4.5065Z" stroke="#7EBD42" stroke-width="1.5"/>
</g>
<defs>
<clipPath id="clip0_30_338">
<rect width="20" height="20" fill="white" transform="translate(-0.000732422)"/>
</clipPath>
</defs>
</svg>
