<svg width="15" height="15" viewBox="0 0 15 15" fill="none" xmlns="http://www.w3.org/2000/svg">
<g clip-path="url(#clip0_30_43)">
<path d="M10.5 14.49V14.99H11V14.49H10.5ZM0.5 14.49H0V14.99H0.5V14.49ZM14.5 14.5V15H15V14.5H14.5ZM8 3.498C7.99987 3.82617 7.9351 4.15111 7.80939 4.45425C7.68368 4.75739 7.4995 5.03281 7.26735 5.26477C7.03521 5.49673 6.75964 5.68069 6.4564 5.80616C6.15316 5.93162 5.82817 5.99613 5.5 5.996V6.996C7.433 6.996 9 5.43 9 3.498H8ZM5.5 5.996C5.17183 5.99613 4.84684 5.93162 4.5436 5.80616C4.24036 5.68069 3.96479 5.49673 3.73265 5.26477C3.5005 5.03281 3.31632 4.75739 3.19061 4.45425C3.0649 4.15111 3.00013 3.82617 3 3.498H2C2.00013 3.9575 2.09077 4.41247 2.26673 4.83693C2.44269 5.2614 2.70054 5.64705 3.02554 5.97187C3.35055 6.29669 3.73635 6.55432 4.16091 6.73004C4.58548 6.90576 5.0405 6.99613 5.5 6.996V5.996ZM3 3.498C3.00013 3.16983 3.0649 2.84489 3.19061 2.54175C3.31632 2.23861 3.5005 1.96319 3.73265 1.73123C3.96479 1.49927 4.24036 1.31531 4.5436 1.18984C4.84684 1.06438 5.17183 0.999869 5.5 1V1.42952e-07C5.0405 -0.000131198 4.58548 0.0902431 4.16091 0.265963C3.73635 0.441683 3.35055 0.699307 3.02554 1.02413C2.70054 1.34895 2.44269 1.7346 2.26673 2.15907C2.09077 2.58353 2.00013 3.0385 2 3.498H3ZM5.5 1C6.16269 1 6.79828 1.26312 7.26706 1.73153C7.73584 2.19993 7.99947 2.83531 8 3.498H9C8.99987 3.0385 8.90923 2.58353 8.73327 2.15907C8.55731 1.7346 8.29947 1.34895 7.97446 1.02413C7.64945 0.699307 7.26365 0.441683 6.83909 0.265963C6.41452 0.0902431 5.9595 -0.000131198 5.5 1.42952e-07V1ZM10.5 13.99H0.5V14.99H10.5V13.99ZM1 14.49V12.495H0V14.49H1ZM3.5 9.994H7.5V8.994H3.5V9.994ZM10 12.494V14.49H11V12.494H10ZM7.5 9.994C8.16304 9.994 8.79893 10.2574 9.26777 10.7262C9.73661 11.1951 10 11.831 10 12.494H11C11 11.5657 10.6313 10.6755 9.97487 10.0191C9.3185 9.36275 8.42826 8.994 7.5 8.994V9.994ZM1 12.495C1 11.832 1.26339 11.1951 1.73223 10.7262C2.20107 10.2574 2.83696 9.994 3.5 9.994V8.994C2.57174 8.994 1.6815 9.36275 1.02513 10.0191C0.368749 10.6755 0 11.5667 0 12.495H1ZM14 13V14.5H15V13H14ZM14.5 14H12V15H14.5V14ZM12 11C12.5304 11 13.0391 11.2107 13.4142 11.5858C13.7893 11.9609 14 12.4696 14 13H15C15 12.2044 14.6839 11.4413 14.1213 10.8787C13.5587 10.3161 12.7956 10 12 10V11ZM11.5 8C11.1022 8 10.7206 7.84196 10.4393 7.56066C10.158 7.27936 10 6.89782 10 6.5H9C9 7.16304 9.26339 7.79893 9.73223 8.26777C10.2011 8.73661 10.837 9 11.5 9V8ZM13 6.5C13 6.89782 12.842 7.27936 12.5607 7.56066C12.2794 7.84196 11.8978 8 11.5 8V9C12.163 9 12.7989 8.73661 13.2678 8.26777C13.7366 7.79893 14 7.16304 14 6.5H13ZM11.5 5C11.8978 5 12.2794 5.15804 12.5607 5.43934C12.842 5.72064 13 6.10218 13 6.5H14C14 5.83696 13.7366 5.20107 13.2678 4.73223C12.7989 4.26339 12.163 4 11.5 4V5ZM11.5 4C10.837 4 10.2011 4.26339 9.73223 4.73223C9.26339 5.20107 9 5.83696 9 6.5H10C10 6.10218 10.158 5.72064 10.4393 5.43934C10.7206 5.15804 11.1022 5 11.5 5V4Z" fill="#7EBD42"/>
</g>
<defs>
<clipPath id="clip0_30_43">
<rect width="15" height="15" fill="white"/>
</clipPath>
</defs>
</svg>
